<?xml version="1.0" standalone="no"?>
<!DOCTYPE svg PUBLIC "-//W3C//DTD SVG 20010904//EN"
 "http://www.w3.org/TR/2001/REC-SVG-20010904/DTD/svg10.dtd">
<svg version="1.0" xmlns="http://www.w3.org/2000/svg"
 width="256.000000pt" height="256.000000pt" viewBox="0 0 256.000000 256.000000"
 preserveAspectRatio="xMidYMid meet">

<g transform="translate(0.000000,256.000000) scale(0.100000,-0.100000)"
fill="#000000" stroke="none">
<path d="M1100 2383 c-305 -33 -564 -160 -770 -380 -216 -230 -321 -535 -290
-841 32 -312 192 -589 455 -788 86 -64 283 -159 395 -189 568 -151 1163 112
1406 622 80 170 117 385 96 566 -17 143 -43 233 -106 362 -118 241 -295 414
-549 535 -193 92 -433 135 -637 113z m288 -49 c265 -39 481 -148 662 -333 148
-152 242 -322 286 -523 21 -93 24 -309 5 -403 -44 -221 -152 -418 -317 -575
-185 -175 -422 -283 -685 -311 -101 -11 -112 -11 -121 4 -6 11 -22 17 -46 17
-20 0 -55 5 -77 11 -22 6 -62 15 -90 20 -134 28 -451 203 -555 308 -131 133
-256 327 -266 416 -1 11 -19 79 -40 150 -35 122 -37 138 -37 265 0 159 9 203
68 329 77 161 186 295 328 402 142 107 344 194 507 218 41 6 86 13 100 15 62
9 181 5 278 -10z"/>
<path d="M1045 2062 c-10 -11 -5 -23 7 -16 7 4 33 7 58 5 84 -4 79 6 83 -169
l3 -157 2 157 c2 141 0 158 -15 166 -20 11 -130 21 -138 14z"/>
<path d="M788 2047 c10 -12 13 -63 11 -222 -1 -113 1 -208 5 -212 3 -4 5 94 4
217 -3 188 -5 224 -18 228 -13 4 -13 3 -2 -11z"/>
<path d="M674 2035 c-3 -8 -4 -20 -1 -27 3 -7 6 -3 6 9 1 19 8 22 49 26 l47 3
-48 2 c-34 1 -49 -2 -53 -13z"/>
<path d="M1475 2006 c-14 -14 -25 -33 -25 -43 1 -11 6 -5 15 15 8 17 20 33 27
33 48 4 92 -16 157 -74 l46 -41 -40 43 c-38 41 -84 70 -132 85 -17 5 -29 1
-48 -18z"/>
<path d="M417 2013 c-3 -5 18 -6 45 -4 35 2 53 -1 59 -10 7 -11 9 -10 9 4 0
14 -9 17 -54 17 -30 0 -57 -3 -59 -7z"/>
<path d="M402 1970 c0 -14 2 -19 5 -12 2 6 2 18 0 25 -3 6 -5 1 -5 -13z"/>
<path d="M532 1955 c0 -16 2 -22 5 -12 2 9 2 23 0 30 -3 6 -5 -1 -5 -18z"/>
<path d="M674 1805 c0 -82 2 -115 3 -72 2 43 2 110 0 150 -1 40 -3 5 -3 -78z"/>
<path d="M392 1920 c0 -14 2 -19 5 -12 2 6 2 18 0 25 -3 6 -5 1 -5 -13z"/>
<path d="M542 1900 c0 -14 2 -19 5 -12 2 6 2 18 0 25 -3 6 -5 1 -5 -13z"/>
<path d="M381 1874 c0 -11 3 -14 6 -6 3 7 2 16 -1 19 -3 4 -6 -2 -5 -13z"/>
<path d="M451 1858 c1 -17 2 -19 6 -5 7 28 21 20 26 -15 4 -32 4 -32 5 5 2 31
-1 37 -18 37 -14 0 -20 -6 -19 -22z"/>
<path d="M1041 1864 c0 -11 3 -14 6 -6 3 7 2 16 -1 19 -3 4 -6 -2 -5 -13z"/>
<path d="M552 1845 c0 -16 2 -22 5 -12 2 9 2 23 0 30 -3 6 -5 -1 -5 -18z"/>
<path d="M1452 1835 c0 -16 2 -22 5 -12 2 9 2 23 0 30 -3 6 -5 -1 -5 -18z"/>
<path d="M372 1830 c0 -14 2 -19 5 -12 2 6 2 18 0 25 -3 6 -5 1 -5 -13z"/>
<path d="M1500 1820 c-30 -16 -50 -29 -45 -29 6 0 35 13 65 29 30 16 51 29 45
29 -5 0 -35 -13 -65 -29z"/>
<path d="M442 1805 c0 -16 2 -22 5 -12 2 9 2 23 0 30 -3 6 -5 -1 -5 -18z"/>
<path d="M562 1790 c0 -14 2 -19 5 -12 2 6 2 18 0 25 -3 6 -5 1 -5 -13z"/>
<path d="M356 1769 c-8 -42 0 -50 9 -9 4 17 5 34 2 36 -2 3 -7 -10 -11 -27z"/>
<path d="M1645 1781 c-6 -21 -59 -33 -74 -18 -15 15 -44 -12 -32 -27 16 -19 1
-57 -25 -66 -16 -6 -22 -15 -18 -25 4 -9 13 -14 20 -11 15 6 46 -48 38 -69 -6
-16 35 -32 45 -17 7 10 47 10 57 -1 9 -9 46 12 39 22 -2 5 7 21 20 35 29 32
30 36 9 36 -9 0 -27 -11 -40 -25 -28 -31 -67 -32 -94 -3 -26 28 -26 58 1 92
21 27 71 36 84 16 9 -14 35 -12 35 3 0 7 -9 18 -21 25 -11 7 -18 19 -15 27 2
7 -1 16 -9 19 -8 3 -16 -3 -20 -13z"/>
<path d="M493 1750 c0 -25 2 -35 4 -22 2 12 2 32 0 45 -2 12 -4 2 -4 -23z"/>
<path d="M432 1745 c0 -16 2 -22 5 -12 2 9 2 23 0 30 -3 6 -5 -1 -5 -18z"/>
<path d="M572 1735 c0 -16 2 -22 5 -12 2 9 2 23 0 30 -3 6 -5 -1 -5 -18z"/>
<path d="M1052 1715 c0 -16 2 -22 5 -12 2 9 2 23 0 30 -3 6 -5 -1 -5 -18z"/>
<path d="M422 1685 c0 -16 2 -22 5 -12 2 9 2 23 0 30 -3 6 -5 -1 -5 -18z"/>
<path d="M500 1691 c0 -6 -15 -12 -32 -14 -32 -4 -32 -4 5 -5 27 -2 37 2 37
13 0 8 -2 15 -5 15 -3 0 -5 -4 -5 -9z"/>
<path d="M582 1675 c0 -16 2 -22 5 -12 2 9 2 23 0 30 -3 6 -5 -1 -5 -18z"/>
<path d="M1052 1650 c0 -14 2 -19 5 -12 2 6 2 18 0 25 -3 6 -5 1 -5 -13z"/>
<path d="M592 1620 c0 -14 2 -19 5 -12 2 6 2 18 0 25 -3 6 -5 1 -5 -13z"/>
<path d="M670 1555 c0 -38 3 -65 7 -62 7 8 5 119 -3 126 -2 2 -4 -26 -4 -64z"/>
<path d="M1053 1560 c0 -30 2 -43 4 -27 2 15 2 39 0 55 -2 15 -4 2 -4 -28z"/>
<path d="M1202 1486 l-2 -118 48 7 c45 7 92 39 77 53 -5 6 -19 -9 -27 -29 -2
-4 -22 -10 -45 -14 l-42 -7 -4 114 -3 113 -2 -119z"/>
<path d="M602 1565 c0 -16 2 -22 5 -12 2 9 2 23 0 30 -3 6 -5 -1 -5 -18z"/>
<path d="M1897 1571 c-4 -17 -3 -21 5 -13 5 5 8 16 6 23 -3 8 -7 3 -11 -10z"/>
<path d="M792 1478 l-2 -108 93 -1 c50 -1 95 -1 100 0 4 0 7 -13 7 -29 0 -16
3 -30 8 -30 4 0 5 25 4 55 -2 30 -8 53 -13 49 -5 -3 -9 -12 -9 -20 0 -11 -18
-14 -90 -14 l-89 0 -4 103 -3 102 -2 -107z"/>
<path d="M312 1550 c0 -14 2 -19 5 -12 2 6 2 18 0 25 -3 6 -5 1 -5 -13z"/>
<path d="M1810 1520 c-30 -16 -50 -29 -45 -29 6 0 35 13 65 29 30 16 51 29 45
29 -5 0 -35 -13 -65 -29z"/>
<path d="M612 1510 c0 -14 2 -19 5 -12 2 6 2 18 0 25 -3 6 -5 1 -5 -13z"/>
<path d="M423 1513 c9 -2 23 -2 30 0 6 3 -1 5 -18 5 -16 0 -22 -2 -12 -5z"/>
<path d="M401 1484 c0 -11 3 -14 6 -6 3 7 2 16 -1 19 -3 4 -6 -2 -5 -13z"/>
<path d="M622 1455 c0 -16 2 -22 5 -12 2 9 2 23 0 30 -3 6 -5 -1 -5 -18z"/>
<path d="M1053 1405 c0 -27 2 -38 4 -22 2 15 2 37 0 50 -2 12 -4 0 -4 -28z"/>
<path d="M278 1407 c-3 -19 -2 -25 4 -19 6 6 8 18 6 28 -3 14 -5 12 -10 -9z"/>
<path d="M632 1395 c0 -16 2 -22 5 -12 2 9 2 23 0 30 -3 6 -5 -1 -5 -18z"/>
<path d="M1322 1375 c0 -16 2 -22 5 -12 2 9 2 23 0 30 -3 6 -5 -1 -5 -18z"/>
<path d="M648 1285 c-3 -14 -1 -25 3 -25 5 0 9 11 9 25 0 14 -2 25 -4 25 -2 0
-6 -11 -8 -25z"/>
<path d="M1052 1290 c0 -14 2 -19 5 -12 2 6 2 18 0 25 -3 6 -5 1 -5 -13z"/>
<path d="M1290 1270 l-35 -7 32 -2 c17 0 35 4 38 9 3 6 5 9 3 9 -2 -1 -19 -5
-38 -9z"/>
<path d="M1789 1249 c-1 -2 -3 -162 -5 -355 l-4 -351 37 -7 c21 -3 50 -6 66
-6 l27 0 0 120 0 120 25 0 25 0 0 -121 c0 -106 2 -120 16 -115 9 3 31 6 50 6
l35 0 -6 207 c-5 195 -14 479 -15 496 0 4 -16 7 -35 7 l-35 0 0 -154 c0 -85
-3 -157 -8 -159 -4 -3 -18 -3 -32 0 l-25 4 -3 147 c-1 80 -4 148 -7 150 -6 6
-105 16 -106 11z"/>
<path d="M1383 1208 l-42 -31 25 -43 c25 -43 25 -43 6 -71 -10 -15 -27 -41
-36 -56 -15 -25 -23 -28 -59 -25 l-42 3 0 -50 c0 -49 1 -50 30 -51 43 -1 58
-12 51 -39 -3 -13 1 -42 9 -65 20 -56 19 -87 -2 -99 -15 -8 -12 -15 27 -59 25
-28 48 -50 51 -51 4 -1 9 8 12 19 4 17 10 20 34 14 66 -17 93 -34 93 -59 0
-31 8 -31 60 -4 31 16 40 27 37 40 -6 23 77 109 104 109 15 0 19 8 19 40 l0
40 -41 0 c-36 0 -46 -6 -78 -41 -47 -53 -99 -62 -150 -27 -55 37 -76 82 -76
163 0 109 46 178 125 191 44 7 98 -26 120 -73 13 -28 20 -33 50 -33 35 0 35 0
35 45 0 25 -4 45 -10 45 -5 0 -23 17 -39 37 l-30 36 22 38 22 38 -36 21 c-40
25 -38 26 -56 -19 -13 -32 -15 -33 -75 -35 l-61 -1 -23 43 c-13 23 -26 42 -29
42 -3 -1 -24 -15 -47 -32z"/>
<path d="M293 1203 c-21 -4 -23 -10 -23 -69 l0 -64 83 0 84 0 -1 -62 c-1 -35
0 -148 2 -251 l2 -188 62 3 c57 3 63 5 69 28 4 14 7 127 8 253 l1 227 89 0
c101 0 101 0 101 81 l0 49 -227 -1 c-126 -1 -238 -4 -250 -6z"/>
<path d="M800 907 c0 -277 2 -305 18 -319 36 -32 67 -39 188 -45 l125 -6 -2
56 -2 57 -104 0 -103 0 0 55 c0 54 0 54 35 61 20 3 63 4 95 2 68 -5 65 -11 54
101 l-7 62 -83 -3 -83 -3 -3 63 -3 62 93 0 92 0 0 28 c0 15 -3 51 -6 80 l-7
52 -148 0 -149 0 0 -303z"/>
</g>
</svg>
